<mxfile host="app.diagrams.net" agent="Mozilla/5.0 (Windows NT 10.0; Win64; x64) AppleWebKit/537.36 (KHTML, like Gecko) Chrome/136.0.0.0 Safari/537.36" version="27.0.8">
  <diagram name="第 1 页" id="-AVoJ06UHrw7mg4SS9_2">
    <mxGraphModel dx="315" dy="188" grid="1" gridSize="10" guides="1" tooltips="1" connect="1" arrows="1" fold="1" page="1" pageScale="1" pageWidth="827" pageHeight="1169" math="0" shadow="0">
      <root>
        <mxCell id="0" />
        <mxCell id="1" parent="0" />
        <mxCell id="K88QGEbG4hhK8RKZKrG8-1" value="User" style="shape=umlActor;verticalLabelPosition=bottom;verticalAlign=top;html=1;rounded=0;labelBackgroundColor=none;fillColor=#F2CC8F;strokeColor=#E07A5F;fontColor=#393C56;" vertex="1" parent="1">
          <mxGeometry x="46" y="82" width="30" height="60" as="geometry" />
        </mxCell>
        <mxCell id="K88QGEbG4hhK8RKZKrG8-2" value="controller:&lt;br&gt;carChargeController" style="rounded=0;whiteSpace=wrap;html=1;labelBackgroundColor=none;fillColor=#F2CC8F;strokeColor=#E07A5F;fontColor=#393C56;" vertex="1" parent="1">
          <mxGeometry x="140.37" y="212" width="120" height="60" as="geometry" />
        </mxCell>
        <mxCell id="K88QGEbG4hhK8RKZKrG8-3" value="" style="endArrow=classic;dashed=1;html=1;rounded=0;entryX=0;entryY=0.5;entryDx=0;entryDy=0;startArrow=none;startFill=0;endFill=1;labelBackgroundColor=none;strokeColor=#E07A5F;fontColor=default;" edge="1" parent="1" source="K88QGEbG4hhK8RKZKrG8-1" target="K88QGEbG4hhK8RKZKrG8-5">
          <mxGeometry width="50" height="50" relative="1" as="geometry">
            <mxPoint x="16" y="140" as="sourcePoint" />
            <mxPoint x="126" y="122" as="targetPoint" />
          </mxGeometry>
        </mxCell>
        <mxCell id="K88QGEbG4hhK8RKZKrG8-4" value="" style="edgeStyle=orthogonalEdgeStyle;rounded=0;orthogonalLoop=1;jettySize=auto;html=1;endArrow=none;startFill=0;labelBackgroundColor=none;strokeColor=#E07A5F;fontColor=default;" edge="1" parent="1" source="K88QGEbG4hhK8RKZKrG8-5" target="K88QGEbG4hhK8RKZKrG8-2">
          <mxGeometry relative="1" as="geometry" />
        </mxCell>
        <mxCell id="K88QGEbG4hhK8RKZKrG8-5" value=":&amp;lt;&amp;lt;UI&amp;gt;&amp;gt;&lt;div&gt;charge&lt;/div&gt;&lt;div&gt;Window&lt;/div&gt;" style="rounded=0;whiteSpace=wrap;html=1;labelBackgroundColor=none;fillColor=#F2CC8F;strokeColor=#E07A5F;fontColor=#393C56;" vertex="1" parent="1">
          <mxGeometry x="140.37" y="82" width="120" height="60" as="geometry" />
        </mxCell>
        <mxCell id="K88QGEbG4hhK8RKZKrG8-6" value="" style="endArrow=classic;html=1;rounded=0;strokeColor=#E07A5F;fontColor=default;fillColor=#F2CC8F;labelBackgroundColor=none;" edge="1" parent="1">
          <mxGeometry width="50" height="50" relative="1" as="geometry">
            <mxPoint x="212" y="152" as="sourcePoint" />
            <mxPoint x="212" y="202" as="targetPoint" />
          </mxGeometry>
        </mxCell>
        <mxCell id="K88QGEbG4hhK8RKZKrG8-7" value=":&amp;lt;&amp;lt;UI&amp;gt;&amp;gt;&lt;div&gt;&lt;span style=&quot;text-wrap-mode: nowrap;&quot;&gt;chargeMain&lt;/span&gt;&lt;/div&gt;&lt;div&gt;Window&lt;/div&gt;" style="rounded=0;whiteSpace=wrap;html=1;labelBackgroundColor=none;fillColor=#F2CC8F;strokeColor=#E07A5F;fontColor=#393C56;" vertex="1" parent="1">
          <mxGeometry x="140.37" y="340" width="120" height="60" as="geometry" />
        </mxCell>
        <mxCell id="K88QGEbG4hhK8RKZKrG8-9" value="" style="endArrow=none;html=1;rounded=0;strokeColor=#E07A5F;fontColor=default;fillColor=#F2CC8F;entryX=0.5;entryY=0;entryDx=0;entryDy=0;labelBackgroundColor=none;" edge="1" parent="1" source="K88QGEbG4hhK8RKZKrG8-2" target="K88QGEbG4hhK8RKZKrG8-7">
          <mxGeometry width="50" height="50" relative="1" as="geometry">
            <mxPoint x="200.37" y="322" as="sourcePoint" />
            <mxPoint x="200.37" y="342.71067811865476" as="targetPoint" />
          </mxGeometry>
        </mxCell>
        <mxCell id="K88QGEbG4hhK8RKZKrG8-16" value="thePile&lt;span style=&quot;background-color: transparent; color: light-dark(rgb(57, 60, 86), rgb(182, 184, 207));&quot;&gt;:&lt;/span&gt;&lt;div&gt;&lt;span style=&quot;background-color: transparent; color: light-dark(rgb(57, 60, 86), rgb(182, 184, 207));&quot;&gt;Pile&lt;/span&gt;&lt;/div&gt;" style="rounded=0;whiteSpace=wrap;html=1;labelBackgroundColor=none;fillColor=#F2CC8F;strokeColor=#E07A5F;fontColor=#393C56;" vertex="1" parent="1">
          <mxGeometry x="354" y="212" width="120" height="60" as="geometry" />
        </mxCell>
        <mxCell id="K88QGEbG4hhK8RKZKrG8-20" value=":DBFacade" style="rounded=0;whiteSpace=wrap;html=1;labelBackgroundColor=none;fillColor=#F2CC8F;strokeColor=#E07A5F;fontColor=#393C56;" vertex="1" parent="1">
          <mxGeometry x="570" y="290" width="120" height="60" as="geometry" />
        </mxCell>
        <mxCell id="K88QGEbG4hhK8RKZKrG8-28" value="theCar&lt;span style=&quot;background-color: transparent; color: light-dark(rgb(57, 60, 86), rgb(182, 184, 207));&quot;&gt;:&lt;/span&gt;&lt;div&gt;Car&lt;/div&gt;" style="rounded=0;whiteSpace=wrap;html=1;labelBackgroundColor=none;fillColor=#F2CC8F;strokeColor=#E07A5F;fontColor=#393C56;" vertex="1" parent="1">
          <mxGeometry x="294" y="290" width="120" height="60" as="geometry" />
        </mxCell>
        <mxCell id="K88QGEbG4hhK8RKZKrG8-29" value="" style="endArrow=classic;html=1;rounded=0;strokeColor=#E07A5F;fontColor=default;fillColor=#F2CC8F;labelBackgroundColor=none;" edge="1" parent="1">
          <mxGeometry width="50" height="50" relative="1" as="geometry">
            <mxPoint x="186" y="152" as="sourcePoint" />
            <mxPoint x="186" y="202" as="targetPoint" />
          </mxGeometry>
        </mxCell>
        <mxCell id="K88QGEbG4hhK8RKZKrG8-30" value="1:save()" style="text;html=1;align=center;verticalAlign=middle;resizable=0;points=[];autosize=1;strokeColor=none;fillColor=none;" vertex="1" parent="1">
          <mxGeometry x="120" y="160" width="70" height="30" as="geometry" />
        </mxCell>
        <mxCell id="K88QGEbG4hhK8RKZKrG8-31" value="2:End_Charging(car_id,ChargingPileNum)" style="text;html=1;align=center;verticalAlign=middle;resizable=0;points=[];autosize=1;strokeColor=none;fillColor=none;" vertex="1" parent="1">
          <mxGeometry x="203" y="160" width="250" height="30" as="geometry" />
        </mxCell>
        <mxCell id="K88QGEbG4hhK8RKZKrG8-32" value="2.2:save()" style="text;html=1;align=center;verticalAlign=middle;resizable=0;points=[];autosize=1;strokeColor=none;fillColor=none;" vertex="1" parent="1">
          <mxGeometry x="274" y="200" width="80" height="30" as="geometry" />
        </mxCell>
        <mxCell id="K88QGEbG4hhK8RKZKrG8-33" value="" style="endArrow=none;html=1;rounded=0;entryX=0;entryY=0.5;entryDx=0;entryDy=0;" edge="1" parent="1" source="K88QGEbG4hhK8RKZKrG8-2" target="K88QGEbG4hhK8RKZKrG8-16">
          <mxGeometry width="50" height="50" relative="1" as="geometry">
            <mxPoint x="260.37" y="292" as="sourcePoint" />
            <mxPoint x="331.08067811865476" y="242" as="targetPoint" />
          </mxGeometry>
        </mxCell>
        <mxCell id="K88QGEbG4hhK8RKZKrG8-34" value="" style="endArrow=none;html=1;rounded=0;entryX=0.62;entryY=0.99;entryDx=0;entryDy=0;entryPerimeter=0;exitX=0;exitY=0.5;exitDx=0;exitDy=0;" edge="1" parent="1" source="K88QGEbG4hhK8RKZKrG8-28" target="K88QGEbG4hhK8RKZKrG8-2">
          <mxGeometry width="50" height="50" relative="1" as="geometry">
            <mxPoint x="215" y="320" as="sourcePoint" />
            <mxPoint x="270" y="280" as="targetPoint" />
            <Array as="points">
              <mxPoint x="215" y="320" />
            </Array>
          </mxGeometry>
        </mxCell>
        <mxCell id="K88QGEbG4hhK8RKZKrG8-35" value="2.1:save()" style="text;html=1;align=center;verticalAlign=middle;resizable=0;points=[];autosize=1;strokeColor=none;fillColor=none;" vertex="1" parent="1">
          <mxGeometry x="214" y="280" width="80" height="30" as="geometry" />
        </mxCell>
        <mxCell id="K88QGEbG4hhK8RKZKrG8-37" value="" style="endArrow=classic;html=1;rounded=0;" edge="1" parent="1">
          <mxGeometry width="50" height="50" relative="1" as="geometry">
            <mxPoint x="219" y="310" as="sourcePoint" />
            <mxPoint x="289" y="310" as="targetPoint" />
          </mxGeometry>
        </mxCell>
        <mxCell id="K88QGEbG4hhK8RKZKrG8-38" value="" style="endArrow=classic;html=1;rounded=0;" edge="1" parent="1">
          <mxGeometry width="50" height="50" relative="1" as="geometry">
            <mxPoint x="274" y="230" as="sourcePoint" />
            <mxPoint x="344" y="230" as="targetPoint" />
          </mxGeometry>
        </mxCell>
        <mxCell id="K88QGEbG4hhK8RKZKrG8-40" value="" style="endArrow=none;html=1;rounded=0;entryX=0;entryY=0.5;entryDx=0;entryDy=0;" edge="1" parent="1" source="K88QGEbG4hhK8RKZKrG8-28" target="K88QGEbG4hhK8RKZKrG8-20">
          <mxGeometry width="50" height="50" relative="1" as="geometry">
            <mxPoint x="414" y="370" as="sourcePoint" />
            <mxPoint x="484.71067811865476" y="320" as="targetPoint" />
          </mxGeometry>
        </mxCell>
        <mxCell id="K88QGEbG4hhK8RKZKrG8-41" value="2.1.1:insert(theCar,Car)" style="text;html=1;align=center;verticalAlign=middle;resizable=0;points=[];autosize=1;strokeColor=none;fillColor=none;" vertex="1" parent="1">
          <mxGeometry x="420" y="280" width="150" height="30" as="geometry" />
        </mxCell>
        <mxCell id="K88QGEbG4hhK8RKZKrG8-42" value="" style="endArrow=classic;html=1;rounded=0;" edge="1" parent="1">
          <mxGeometry width="50" height="50" relative="1" as="geometry">
            <mxPoint x="430" y="309.67" as="sourcePoint" />
            <mxPoint x="560" y="309.67" as="targetPoint" />
          </mxGeometry>
        </mxCell>
        <mxCell id="K88QGEbG4hhK8RKZKrG8-43" value="" style="endArrow=none;html=1;rounded=0;entryX=0.5;entryY=0;entryDx=0;entryDy=0;" edge="1" parent="1" source="K88QGEbG4hhK8RKZKrG8-16" target="K88QGEbG4hhK8RKZKrG8-20">
          <mxGeometry width="50" height="50" relative="1" as="geometry">
            <mxPoint x="474" y="292" as="sourcePoint" />
            <mxPoint x="544.7106781186548" y="242" as="targetPoint" />
            <Array as="points">
              <mxPoint x="630" y="242" />
            </Array>
          </mxGeometry>
        </mxCell>
        <mxCell id="K88QGEbG4hhK8RKZKrG8-44" value="2.2.1:insert(thePile,Pile)" style="text;html=1;align=center;verticalAlign=middle;resizable=0;points=[];autosize=1;strokeColor=none;fillColor=none;" vertex="1" parent="1">
          <mxGeometry x="480" y="200" width="150" height="30" as="geometry" />
        </mxCell>
        <mxCell id="K88QGEbG4hhK8RKZKrG8-45" value="" style="endArrow=classic;html=1;rounded=0;" edge="1" parent="1">
          <mxGeometry width="50" height="50" relative="1" as="geometry">
            <mxPoint x="490" y="229.67000000000002" as="sourcePoint" />
            <mxPoint x="620" y="229.67000000000002" as="targetPoint" />
          </mxGeometry>
        </mxCell>
      </root>
    </mxGraphModel>
  </diagram>
</mxfile>
